<?xml version="1.0" encoding="utf-8"?>
<!-- Generator: Adobe Illustrator 16.0.0, SVG Export Plug-In . SVG Version: 6.00 Build 0)  -->
<!DOCTYPE svg PUBLIC "-//W3C//DTD SVG 1.1//EN" "http://www.w3.org/Graphics/SVG/1.1/DTD/svg11.dtd">
<svg version="1.1" id="Layer_1" xmlns="http://www.w3.org/2000/svg" xmlns:xlink="http://www.w3.org/1999/xlink" x="0px" y="0px"
	 width="180px" height="14px" viewBox="0 0 180 14" enable-background="new 0 0 180 14" xml:space="preserve">
<path d="M53.372,0.567h2.267v12.886h-2.267V8.021h-6.149v5.432H44.96V0.567h2.263v5.358h6.149V0.567z M6.338,7.743h3.879v3.169
	c-0.874,0.71-2.222,1.273-3.679,1.273c-3.096,0-5.045-2.258-5.045-5.3V6.851c0-2.841,2.021-5.228,4.844-5.228
	c1.803,0,2.896,0.602,3.879,1.457l0.929-1.093C9.871,0.913,8.542,0.294,6.393,0.294C2.568,0.294,0,3.39,0,6.887v0.037
	c0,3.643,2.477,6.557,6.484,6.557c2.149,0,3.934-0.893,5.118-1.948V6.45H6.338V7.743z M71.638,7.007v0.035
	c0,3.628-2.799,6.664-6.757,6.664c-3.96,0-6.721-3-6.721-6.626V7.042c0-3.625,2.798-6.663,6.755-6.663
	C68.875,0.379,71.638,3.381,71.638,7.007z M69.262,7.042c0-2.504-1.823-4.583-4.38-4.583c-2.561,0-4.345,2.044-4.345,4.548v0.035
	c0,2.504,1.82,4.567,4.379,4.567c2.561,0,4.347-2.027,4.347-4.529L69.262,7.042L69.262,7.042z M25.133,9.746v0.037
	c0,2.186-1.839,3.479-4.626,3.479h-5.664V0.513h5.427c1.457,0,2.604,0.419,3.333,1.129c0.528,0.547,0.82,1.221,0.82,2.04v0.036
	c0,1.657-1.02,2.514-2.022,2.95C23.913,7.124,25.133,7.998,25.133,9.746z M16.264,6.195h3.77c1.73,0,2.932-0.783,2.932-2.277V3.882
	c0-1.257-1.002-2.076-2.823-2.076h-3.879V6.195z M23.676,9.655c0-1.384-1.166-2.187-3.387-2.187h-4.025v4.499h4.28
	c1.931,0,3.132-0.855,3.132-2.276V9.655z M34.094,7.47L29.45,0.513h-1.457v12.749h1.403V2.953l4.644,6.812h0.073l4.645-6.831v10.327
	h1.438V0.513h-1.457L34.094,7.47z M141.225,7.007v0.035c0,3.628-2.797,6.664-6.756,6.664c-3.957,0-6.723-3-6.723-6.626V7.042
	c0-3.625,2.799-6.663,6.759-6.663C138.463,0.379,141.225,3.381,141.225,7.007z M138.85,7.042c0-2.504-1.822-4.583-4.381-4.583
	s-4.344,2.044-4.344,4.548v0.035c0,2.504,1.82,4.567,4.38,4.567c2.562,0,4.345-2.027,4.345-4.529V7.042L138.85,7.042z
	 M159.243,7.968h6.46V5.943h-6.46v-3.35h7.29V0.567h-9.557v12.886h9.648v-2.025h-7.383L159.243,7.968L159.243,7.968z M80.522,6.661
	L76.6,0.567h-2.41v12.886h2.227V4.25l4.032,6.037h0.074l4.07-6.075v9.241h2.265V0.567h-2.412L80.522,6.661z M154.971,0.567h-2.801
	l-6.129,6.48v-6.48h-2.266v12.886h2.266V9.716l2.006-2.061l4.398,5.798h2.764l-5.615-7.344L154.971,0.567z M180,13.453h-2.689
	l-3.166-4.491h-2.836v4.491h-2.264V0.567h5.744c1.622,0,2.893,0.479,3.719,1.288c0.684,0.699,1.068,1.657,1.068,2.779v0.039
	c0,2.116-1.271,3.388-3.059,3.901L180,13.453z M174.623,6.956c1.621,0,2.652-0.847,2.652-2.155V4.765
	c0-1.38-0.994-2.136-2.672-2.136h-3.295v4.327H174.623z M122.775,8.575l3.479,4.878h-2.688L120.4,8.962h-2.836v4.491H115.3V0.567
	h5.745c1.619,0,2.891,0.479,3.717,1.288c0.684,0.699,1.07,1.657,1.07,2.779v0.039C125.832,6.79,124.561,8.061,122.775,8.575z
	 M120.879,6.956c1.621,0,2.65-0.847,2.65-2.155V4.765c0-1.38-0.994-2.136-2.67-2.136h-3.295v4.327H120.879z M92.295,7.968h6.465
	V5.943h-6.465v-3.35h7.293V0.567H90.03v12.886h9.647v-2.025h-7.383L92.295,7.968L92.295,7.968z M112.836,9.882v0.036
	c0,2.302-1.898,3.535-4.77,3.535H102.1V0.567h5.781c1.473,0,2.633,0.406,3.37,1.141c0.571,0.571,0.866,1.271,0.866,2.137v0.036
	c0,1.548-0.885,2.373-1.842,2.873C111.785,7.269,112.836,8.134,112.836,9.882z M104.326,5.998h3.094
	c1.455,0,2.432-0.569,2.432-1.748V4.212c0-1.01-0.811-1.638-2.265-1.638h-3.261V5.998z M110.57,9.641
	c0-1.084-0.867-1.728-2.651-1.728h-3.593v3.534h3.757c1.548,0,2.487-0.607,2.487-1.769V9.641z"/>
</svg>
