<svg xmlns="http://www.w3.org/2000/svg" width="60" height="60"><path d="M29.969 23.042c-.165-1.269.461-2.59 1.174-3.42.795-.932 2.146-1.631 3.258-1.675.143 1.298-.377 2.597-1.152 3.532-.771.934-2.038 1.659-3.28 1.563zm6.062 6.649c-.025-2.798 2.283-4.14 2.391-4.208-1.302-1.901-3.326-2.16-4.044-2.192-1.723-.175-3.358 1.015-4.231 1.015s-2.219-.983-3.649-.96c-1.878.029-3.604 1.091-4.574 2.771-1.945 3.38-.497 8.393 1.403 11.137.931 1.342 2.035 2.855 3.49 2.798 1.4-.056 1.93-.905 3.621-.905 1.692 0 2.168.905 3.646.877 1.507-.027 2.465-1.371 3.383-2.719 1.067-1.556 1.506-3.066 1.533-3.142-.034-.014-2.939-1.127-2.969-4.472z"></path></svg>