<svg xmlns="http://www.w3.org/2000/svg" xmlns:xlink="http://www.w3.org/1999/xlink" id="Layer_1" x="0px" y="0px" width="70px" height="23px" viewBox="0 0 70 23" xml:space="preserve">
<g>
	<path fill="#777677" d="M14.421,6.122l-0.74,4.001H8.334c-2.491,0-3.402,1.488-3.402,3.857c0,3.403,1.337,5.106,4.058,5.106   c0.88,0,1.289-0.084,1.289-0.084v-4.05h4.411v7.7c0,0-1.814,0.345-5.105,0.345C3.595,22.998,0,19.995,0,14.038   c0-5.604,3.683-7.916,7.909-7.916H14.421z"></path>
	<path fill="#777677" d="M22.891,22.998c-4.118,0-5.673-0.345-5.673-0.345V6.122h8.495c2.154,0,3.923,0.844,3.923,3.436   c0,3.115-3.271,3.924-3.271,3.924l0.088,0.686c2.575,0,4.113,0.85,4.113,3.144C30.565,21.108,27.673,22.998,22.891,22.998    M21.643,19.641c0,0,0.535,0.098,1.355,0.098c1.776,0,2.571-0.846,2.571-2.413c0-1.155-0.673-1.657-1.824-1.656l-2.104,0.001   L21.643,19.641z M21.642,10.123v3.075c0,0,3.271-0.142,3.271-2.042c0-0.912-0.577-1.033-1.337-1.033H21.642z"></path>
	<polygon fill="#777677" points="32.063,22.653 32.704,6.122 40.714,6.122 42.405,17.33 42.684,17.33 44.557,6.122 52.481,6.122    53.041,22.653 48.28,22.653 48.09,10.123 47.307,10.123 44.871,22.653 39.833,22.653 37.593,10.123 36.727,10.123 36.587,22.653     "></polygon>
	<path fill="#777677" d="M57.826,20.412l0.704,0.132v0.94c0,0.438,0.262,0.598,0.678,0.598c0.601,0,0.899-0.234,0.899-0.713   c0-0.154-0.015-0.227-0.015-0.227h-0.712v-0.776h1.355c0,0,0.059,0.318,0.059,0.898c0,1.053-0.527,1.687-1.575,1.687   c-0.987,0-1.394-0.648-1.394-1.393V20.412z"></path>
	<path fill="#777677" d="M60.736,19.888h-2.91v-1.572c0-0.377,0.188-0.689,0.644-0.689c0.743,0,0.876,0.746,0.876,0.746l0.123-0.006   c0,0-0.009-0.423,0.346-0.561l0.922-0.358v0.879l-0.79,0.244c-0.304,0.094-0.256,0.343-0.256,0.539l1.046,0.002V19.888z    M58.53,19.109h0.674c0,0-0.091-0.652-0.492-0.652c-0.16,0-0.182,0.102-0.182,0.236V19.109z"></path>
	<path fill="#777677" d="M60.736,14.198h-2.91v-1.485c0-0.467,0.361-0.804,0.817-0.804c1.11,0,1.217,1.02,1.217,1.511l0.876,0.003   V14.198z M58.53,13.42h0.652c0-0.3,0.013-0.681-0.388-0.681c-0.16,0-0.265,0.131-0.265,0.265V13.42z"></path>
	<path fill="#777677" d="M58.473,10.179c0,0.425,0.21,0.604,0.761,0.604c0.519,0,0.874-0.134,0.874-0.589   c0-0.512-0.348-0.604-0.926-0.604C58.659,9.59,58.473,9.767,58.473,10.179 M57.765,10.211c0-0.661,0.248-1.479,1.478-1.479   c0.95,0,1.553,0.556,1.553,1.473c0,0.915-0.643,1.435-1.493,1.435C58.186,11.64,57.765,11.03,57.765,10.211"></path>
	<path fill="#777677" d="M57.826,17.2v-0.778h1.879c0.278,0,0.402-0.165,0.402-0.461c0-0.298-0.124-0.468-0.423-0.468h-1.858v-0.777   H59.8c0.517,0,0.995,0.351,0.995,1.23c0,0.924-0.438,1.254-0.995,1.254H57.826z"></path>
	<rect x="62.428" y="5.716" fill="#777677" width="2.909" height="0.779"></rect>
	<polygon fill="#777677" points="62.428,5.11 62.428,4.332 64.633,4.332 64.633,3.167 65.337,3.167 65.337,5.11  "></polygon>
	<polygon fill="#777677" points="63.132,7.649 65.337,7.649 65.337,8.429 63.132,8.429 63.132,9.232 62.428,9.232 62.428,6.847    63.132,6.847  "></polygon>
	<path fill="#777677" d="M65.396,21.709c0,0.725-0.06,0.999-0.06,0.999h-2.909v-1.496c0-0.379,0.149-0.69,0.604-0.69   c0.548,0,0.69,0.576,0.69,0.576l0.121-0.016c0-0.453,0.149-0.725,0.553-0.725C65.065,20.357,65.396,20.867,65.396,21.709    M64.807,21.929c0,0,0.018-0.095,0.018-0.239c0-0.312-0.149-0.452-0.425-0.452c-0.204,0-0.292,0.118-0.291,0.321v0.37H64.807z    M63.132,21.929h0.541c0,0-0.023-0.576-0.358-0.576c-0.162,0-0.183,0.102-0.183,0.235V21.929z"></path>
	<path fill="#777677" d="M65.337,16.98h-2.909v-1.571c0-0.379,0.188-0.69,0.645-0.69c0.742,0,0.874,0.747,0.874,0.747l0.122-0.007   c0,0-0.008-0.423,0.348-0.56l0.921-0.358v0.878l-0.789,0.243c-0.306,0.095-0.256,0.344-0.256,0.54l1.045,0.002V16.98z    M63.132,16.202h0.673c0,0-0.09-0.652-0.49-0.652c-0.162,0-0.183,0.103-0.183,0.235V16.202z"></path>
	<path fill="#777677" d="M62.428,19.997V19.22h1.879c0.278,0,0.403-0.165,0.403-0.462s-0.125-0.468-0.423-0.468h-1.859v-0.776h1.976   c0.515,0,0.993,0.35,0.993,1.229c0,0.925-0.438,1.254-0.993,1.254H62.428z"></path>
	<path fill="#777677" d="M62.428,12.237l0.704,0.11v0.894c0,0.177,0.056,0.254,0.194,0.254c0.167,0,0.205-0.076,0.288-0.502   c0.098-0.491,0.168-0.854,0.727-0.854c0.732,0,1.056,0.367,1.056,1.233c0,0.574-0.06,0.801-0.06,0.801H64.63   c0,0,0.08-0.321,0.08-0.736c0-0.367-0.062-0.498-0.244-0.498c-0.188,0-0.174,0.11-0.258,0.48c-0.13,0.574-0.386,0.89-0.946,0.89   c-0.485,0-0.834-0.278-0.834-0.814V12.237z"></path>
	<polygon fill="#777677" points="62.064,10.823 61.458,10.649 61.458,9.803 62.064,10.219  "></polygon>
	<path fill="#777677" d="M62.428,11.065v-1.17l2.909-0.841v0.89l-0.677,0.16v0.894l0.677,0.187v0.843L62.428,11.065z M64.021,10.257   l-0.889,0.213v0.106l0.889,0.246V10.257z"></path>
	<polygon fill="#777677" points="67.03,18.435 67.03,16.544 67.732,16.544 67.732,17.656 68.128,17.656 68.128,16.588    68.802,16.588 68.802,17.656 69.234,17.656 69.234,16.47 69.938,16.47 69.938,18.435  "></polygon>
	<rect x="67.028" y="12.237" fill="#777677" width="2.91" height="0.779"></rect>
	<path fill="#777677" d="M67.03,9.41l0.702,0.13v0.77c0,0.438,0.263,0.6,0.681,0.6c0.598,0,0.898-0.194,0.898-0.805   c0-0.354-0.08-0.577-0.08-0.577h0.707c0,0,0.062,0.189,0.062,0.563c0,1.054-0.529,1.687-1.577,1.687   c-0.986,0-1.393-0.617-1.393-1.391V9.41z"></path>
	<polygon fill="#777677" points="67.03,16.162 67.03,15.206 67.814,14.74 67.03,14.289 67.03,13.369 68.403,14.314 69.938,13.337    69.938,14.251 69.008,14.778 69.938,15.337 69.938,16.267 68.414,15.213  "></polygon>
	<polygon fill="#777677" points="69.938,22.711 67.03,22.598 67.03,21.188 69.001,20.892 69.001,20.842 67.03,20.512 67.03,19.117    69.938,19.02 69.938,19.856 67.732,19.891 67.732,20.028 69.938,20.456 69.938,21.343 67.732,21.738 67.732,21.891 69.938,21.916     "></polygon>
	<polygon fill="#777677" points="69.938,5.988 67.03,5.988 67.03,4.886 68.469,4.158 68.469,4.11 67.03,4.11 67.03,3.354    69.938,3.354 69.938,4.104 67.905,5.168 67.905,5.23 69.938,5.23  "></polygon>
	<path fill="#777677" d="M67.03,8.341V7.17l2.908-0.84v0.889L69.262,7.38v0.894l0.677,0.187v0.842L67.03,8.341z M68.622,7.532   l-0.89,0.211v0.108l0.89,0.245V7.532z"></path>
	<path fill="#777677" d="M67.675,1.449c0,0.424,0.21,0.603,0.761,0.603c0.519,0,0.876-0.134,0.876-0.588   c0-0.513-0.349-0.604-0.926-0.604C67.863,0.86,67.675,1.037,67.675,1.449 M66.969,1.481c0-0.662,0.248-1.479,1.478-1.479   c0.95,0,1.554,0.557,1.554,1.473S69.355,2.91,68.504,2.91C67.389,2.91,66.969,2.301,66.969,1.481"></path>
</g>
</svg>