<svg xmlns="http://www.w3.org/2000/svg" xmlns:xlink="http://www.w3.org/1999/xlink" id="Layer_1" x="0px" y="0px" width="70px" height="32px" viewBox="0 0 70 32" xml:space="preserve">
<g>
	<path opacity="0.3" fill-rule="evenodd" clip-rule="evenodd" fill="#777777" d="M8.707,19.283l-3.159-3.406   c-0.17-0.183-0.412-0.291-0.663-0.296H4.868c-0.245,0-0.483,0.099-0.656,0.271l-3.939,3.937c-0.361,0.361-0.364,0.951-0.006,1.315   l7.861,8.007c0.175,0.178,0.408,0.277,0.657,0.279h0.007c0.247,0,0.479-0.095,0.655-0.27l15.113-15.035   c0.194-0.193,0.304-0.456,0.304-0.73v-1.814v-0.112V5.773c0-0.807-0.964-1.217-1.542-0.657L8.707,19.283z M23.219,13.062   L8.982,27.227c-0.102,0.101-0.266,0.1-0.366-0.002L2.15,20.639c-0.1-0.102-0.1-0.265,0.001-0.366l2.507-2.505   c0.104-0.104,0.272-0.101,0.372,0.007l2.969,3.2c0.168,0.182,0.407,0.29,0.655,0.297c0.249,0.005,0.492-0.089,0.67-0.261   l13.895-13.47V13.062z"></path>
	<path opacity="0.8" fill-rule="evenodd" clip-rule="evenodd" fill="#777777" d="M8.434,15.121l-3.06-3.405   c-0.166-0.184-0.4-0.292-0.642-0.297c-0.006,0-0.011,0-0.017,0c-0.237,0-0.468,0.099-0.636,0.271l-3.815,3.937   c-0.35,0.361-0.353,0.951-0.006,1.315l7.616,8.007c0.169,0.179,0.395,0.277,0.635,0.279c0.003,0,0.005,0,0.007,0   c0.239,0,0.463-0.096,0.634-0.27L23.79,9.923c0.187-0.192,0.292-0.455,0.292-0.729V7.38V7.267V1.611   c0-0.807-0.933-1.217-1.494-0.657L8.434,15.121z M22.492,8.9L8.701,23.064c-0.099,0.102-0.257,0.101-0.355-0.003l-6.263-6.585   c-0.097-0.102-0.097-0.265,0.001-0.366l2.429-2.505c0.1-0.104,0.263-0.101,0.36,0.007l2.875,3.2   c0.164,0.182,0.395,0.29,0.634,0.297c0.241,0.005,0.477-0.089,0.65-0.262L22.492,3.379V8.9z"></path>
	<path fill-rule="evenodd" clip-rule="evenodd" fill="#777777" d="M64.036,5.193c0.64,0,1.136-0.263,1.404-0.718h0.013v0.483   c0,0.117,0.062,0.193,0.173,0.193c0.116,0,0.179-0.076,0.179-0.193V0.438c0-0.124-0.062-0.2-0.179-0.2   c-0.11,0-0.173,0.076-0.173,0.2V2.46H65.44c-0.269-0.455-0.765-0.718-1.404-0.718c-0.99,0-1.671,0.697-1.671,1.726   S63.046,5.193,64.036,5.193z M64.085,2.073c0.805,0,1.368,0.566,1.368,1.395c0,0.822-0.563,1.395-1.368,1.395   c-0.812,0-1.361-0.565-1.361-1.395C62.724,2.64,63.273,2.073,64.085,2.073z M68.314,1.742c-1.018,0-1.726,0.704-1.726,1.726   c0,1.028,0.708,1.726,1.761,1.726c0.592,0,1.073-0.234,1.376-0.607c0.027-0.034,0.048-0.075,0.048-0.117   c0-0.104-0.062-0.187-0.179-0.187c-0.049,0-0.097,0.028-0.131,0.069c-0.248,0.311-0.633,0.511-1.114,0.511   c-0.812,0-1.348-0.511-1.396-1.271h2.834C69.911,3.592,70,3.509,70,3.386C70,2.433,69.298,1.742,68.314,1.742z M66.961,3.268   c0.082-0.718,0.604-1.194,1.354-1.194c0.737,0,1.267,0.477,1.349,1.194H66.961z M62.393,16.835c-0.625-0.002-1.13-0.513-1.128-1.14   c0.002-0.628,0.51-1.135,1.135-1.133c0.626,0.002,1.131,0.513,1.129,1.14C63.526,16.33,63.019,16.837,62.393,16.835z    M66.676,15.702c-0.002,0.628-0.51,1.135-1.135,1.133c-0.626-0.002-1.131-0.513-1.129-1.14c0.002-0.628,0.511-1.135,1.136-1.133   S66.678,15.075,66.676,15.702z M69.879,15.702c-0.002,0.628-0.51,1.135-1.136,1.133c-0.625-0.002-1.13-0.513-1.128-1.14   c0.002-0.628,0.51-1.135,1.135-1.133C69.376,14.564,69.882,15.075,69.879,15.702z M31.14,16.579c0-0.361-0.283-0.507-1.176-0.526   c-1.345-0.026-1.83-0.382-1.83-1.225c0-0.87,0.734-1.423,1.89-1.423c0.669,0,1.214,0.185,1.602,0.533   c0.072,0.066,0.131,0.158,0.131,0.31c0,0.211-0.145,0.355-0.328,0.355c-0.131,0-0.217-0.039-0.289-0.092   c-0.335-0.27-0.709-0.396-1.176-0.396c-0.623,0-1.036,0.276-1.036,0.686c0,0.335,0.262,0.461,1.129,0.474   c1.384,0.021,1.884,0.389,1.884,1.278c0,0.902-0.703,1.423-1.917,1.423c-0.854,0-1.497-0.224-1.857-0.652   c-0.066-0.079-0.099-0.171-0.099-0.283c0-0.218,0.145-0.369,0.368-0.369c0.099,0,0.184,0.033,0.25,0.093   c0.334,0.329,0.8,0.5,1.398,0.5C30.74,17.265,31.14,17.008,31.14,16.579z M32.602,17.476v-3.57c0-0.264,0.157-0.422,0.42-0.422   h2.901c0.237,0,0.387,0.139,0.387,0.362c0,0.225-0.15,0.355-0.387,0.355h-2.54v1.12h2.055c0.242,0,0.387,0.139,0.387,0.356   c0,0.217-0.145,0.355-0.387,0.355h-2.055v1.146h2.54c0.237,0,0.387,0.132,0.387,0.355s-0.15,0.362-0.387,0.362h-2.901   C32.759,17.897,32.602,17.739,32.602,17.476z M40.139,17.897h-2.804c-0.262,0-0.42-0.158-0.42-0.422v-3.609   c0-0.264,0.145-0.422,0.394-0.422c0.243,0,0.388,0.158,0.388,0.422v3.313h2.442c0.236,0,0.387,0.132,0.387,0.355   S40.375,17.897,40.139,17.897z M44.176,17.897h-2.804c-0.262,0-0.42-0.158-0.42-0.422v-3.609c0-0.264,0.145-0.422,0.395-0.422   c0.242,0,0.387,0.158,0.387,0.422v3.313h2.442c0.236,0,0.387,0.132,0.387,0.355S44.412,17.897,44.176,17.897z M46.912,17.977   c1.358,0,2.291-0.929,2.291-2.285c0-1.357-0.933-2.286-2.291-2.286c-1.359,0-2.291,0.929-2.291,2.286   C44.621,17.048,45.553,17.977,46.912,17.977z M46.912,14.123c0.88,0,1.489,0.639,1.489,1.568c0,0.929-0.609,1.567-1.489,1.567   s-1.49-0.639-1.49-1.567C45.422,14.762,46.032,14.123,46.912,14.123z M55.518,15.69c0-1.39-0.879-2.207-2.383-2.207h-1.312   c-0.263,0-0.421,0.158-0.421,0.422v3.57c0,0.264,0.158,0.422,0.421,0.422h1.312C54.639,17.897,55.518,17.081,55.518,15.69z    M53.174,17.18h-0.991v-2.979h0.991c0.966,0,1.543,0.555,1.543,1.489C54.717,16.627,54.14,17.18,53.174,17.18z M56.979,14.201v1.12   h2.056c0.242,0,0.387,0.139,0.387,0.356c0,0.217-0.145,0.355-0.387,0.355h-2.056v1.146h2.541c0.235,0,0.388,0.132,0.388,0.355   s-0.152,0.362-0.388,0.362h-2.901c-0.263,0-0.42-0.158-0.42-0.422v-3.57c0-0.264,0.157-0.422,0.42-0.422h2.901   c0.235,0,0.388,0.139,0.388,0.362c0,0.225-0.152,0.355-0.388,0.355H56.979z M28.094,22.15c0-1.468,1.009-2.473,2.472-2.473   c0.809,0,1.47,0.292,1.91,0.812c0.071,0.086,0.128,0.192,0.128,0.321c0,0.242-0.178,0.413-0.412,0.413   c-0.156,0-0.27-0.064-0.355-0.171c-0.284-0.371-0.71-0.599-1.264-0.599c-0.952,0-1.612,0.691-1.612,1.695   c0,1.006,0.661,1.696,1.612,1.696c0.582,0,1.029-0.242,1.32-0.67c0.078-0.107,0.206-0.171,0.348-0.171   c0.249,0,0.412,0.171,0.412,0.413c0,0.114-0.036,0.214-0.093,0.293c-0.39,0.548-1.101,0.912-1.995,0.912   C29.103,24.624,28.094,23.619,28.094,22.15z M35.488,24.624c1.47,0,2.478-1.005,2.478-2.474c0-1.468-1.008-2.473-2.478-2.473   c-1.47,0-2.479,1.005-2.479,2.473C33.009,23.619,34.018,24.624,35.488,24.624z M35.488,20.455c0.952,0,1.613,0.69,1.613,1.695   c0,1.006-0.661,1.696-1.613,1.696s-1.612-0.69-1.612-1.696C33.876,21.146,34.536,20.455,35.488,20.455z M38.687,24.132v-3.891   c0-0.313,0.192-0.521,0.49-0.521c0.192,0,0.348,0.071,0.483,0.242l2.514,3.235h0.014V20.17c0-0.277,0.156-0.449,0.412-0.449   c0.263,0,0.42,0.172,0.42,0.449v3.891c0,0.313-0.186,0.521-0.491,0.521c-0.191,0-0.354-0.079-0.489-0.25l-2.507-3.213h-0.015v3.014   c0,0.278-0.156,0.449-0.419,0.449C38.843,24.581,38.687,24.41,38.687,24.132z M44.808,20.54v1.312h2.159   c0.255,0,0.411,0.143,0.411,0.385s-0.156,0.392-0.411,0.392h-2.159v1.497c0,0.285-0.155,0.456-0.419,0.456   c-0.27,0-0.426-0.171-0.426-0.456V20.22c0-0.285,0.17-0.456,0.454-0.456h3.068c0.256,0,0.419,0.149,0.419,0.393   c0,0.242-0.163,0.384-0.419,0.384H44.808z M49.235,20.177v3.948c0,0.285-0.156,0.456-0.419,0.456c-0.27,0-0.426-0.171-0.426-0.456   v-3.948c0-0.284,0.156-0.456,0.426-0.456C49.079,19.721,49.235,19.893,49.235,20.177z M54.064,24.581   c0.263,0,0.426-0.171,0.426-0.456v-2.188c0-1.454-0.795-2.26-2.187-2.26c-1.398,0-2.194,0.806-2.194,2.26v2.194   c0,0.278,0.156,0.449,0.419,0.449c0.255,0,0.411-0.171,0.411-0.449v-0.99h2.706v0.983C53.646,24.41,53.809,24.581,54.064,24.581z    M50.939,22.364v-0.463c0-0.948,0.477-1.446,1.357-1.446c0.865,0,1.349,0.498,1.349,1.446v0.463H50.939z M55.375,24.132v-3.891   c0-0.313,0.192-0.521,0.49-0.521c0.191,0,0.348,0.071,0.482,0.242l2.514,3.235h0.014V20.17c0-0.277,0.157-0.449,0.412-0.449   c0.264,0,0.42,0.172,0.42,0.449v3.891c0,0.313-0.186,0.521-0.49,0.521c-0.192,0-0.355-0.079-0.49-0.25l-2.507-3.213h-0.015v3.014   c0,0.278-0.155,0.449-0.419,0.449C55.531,24.581,55.375,24.41,55.375,24.132z M60.414,23.754l2.776-3.214h-2.4   c-0.256,0-0.419-0.142-0.419-0.384c0-0.243,0.163-0.393,0.419-0.393h3.16c0.284,0,0.461,0.171,0.461,0.413   c0,0.136-0.043,0.25-0.149,0.371l-2.776,3.213h2.543c0.255,0,0.419,0.143,0.419,0.385c0,0.243-0.164,0.392-0.419,0.392h-3.303   c-0.29,0-0.462-0.17-0.462-0.412C60.264,23.989,60.308,23.876,60.414,23.754z M68.902,24.581c0.263,0,0.426-0.171,0.426-0.456   v-2.188c0-1.454-0.795-2.26-2.187-2.26c-1.399,0-2.194,0.806-2.194,2.26v2.194c0,0.278,0.156,0.449,0.419,0.449   c0.256,0,0.412-0.171,0.412-0.449v-0.99h2.705v0.983C68.483,24.41,68.646,24.581,68.902,24.581z M65.778,22.364v-0.463   c0-0.948,0.476-1.446,1.355-1.446c0.866,0,1.35,0.498,1.35,1.446v0.463H65.778z M28.359,5.177c0.112,0,0.178-0.072,0.178-0.197   V3.707h3.199v1.272c0,0.125,0.065,0.197,0.177,0.197c0.111,0,0.184-0.072,0.184-0.197V2.686c0-1.332-0.703-2.043-1.951-2.043   c-1.261,0-1.963,0.711-1.963,2.043v2.294C28.182,5.104,28.248,5.177,28.359,5.177z M28.537,2.679c0-1.134,0.565-1.706,1.603-1.706   c1.037,0,1.596,0.572,1.596,1.706v0.699h-3.199V2.679z M32.806,4.755c-0.032-0.032-0.058-0.079-0.058-0.132   c0-0.105,0.072-0.165,0.157-0.165c0.053,0,0.092,0.014,0.125,0.047c0.224,0.25,0.65,0.401,1.149,0.401   c0.677,0,1.064-0.237,1.064-0.658c0-0.383-0.263-0.541-1.104-0.555c-0.998-0.013-1.34-0.243-1.34-0.804   c0-0.593,0.525-0.969,1.354-0.969c0.505,0,0.926,0.146,1.228,0.415c0.033,0.033,0.052,0.073,0.052,0.132   c0,0.092-0.065,0.165-0.15,0.165c-0.053,0-0.099-0.013-0.131-0.046c-0.237-0.225-0.591-0.35-0.979-0.35   c-0.63,0-1.038,0.257-1.038,0.652c0,0.343,0.25,0.475,1.038,0.488c1.038,0.013,1.406,0.27,1.406,0.876   c0,0.613-0.5,0.963-1.379,0.963C33.581,5.217,33.108,5.059,32.806,4.755z M37.72,5.217c0.972,0,1.642-0.666,1.642-1.648   c0-0.975-0.67-1.647-1.642-1.647s-1.648,0.673-1.648,1.647C36.071,4.551,36.748,5.217,37.72,5.217z M37.72,2.237   c0.769,0,1.301,0.54,1.301,1.331s-0.532,1.331-1.301,1.331c-0.781,0-1.307-0.54-1.307-1.331S36.938,2.237,37.72,2.237z    M39.953,3.569c0-0.976,0.677-1.648,1.649-1.648c0.491,0,0.919,0.178,1.228,0.515c0.026,0.032,0.046,0.072,0.046,0.118   c0,0.093-0.065,0.158-0.158,0.158c-0.052,0-0.091-0.02-0.131-0.06c-0.236-0.263-0.578-0.415-0.984-0.415   c-0.782,0-1.309,0.54-1.309,1.332c0,0.79,0.526,1.33,1.309,1.33c0.433,0,0.788-0.164,1.037-0.487   c0.02-0.026,0.065-0.059,0.132-0.059c0.091,0,0.156,0.071,0.156,0.164c0,0.04-0.013,0.079-0.032,0.105   c-0.282,0.383-0.742,0.594-1.293,0.594C40.63,5.217,39.953,4.551,39.953,3.569z M44.091,2.152v2.84   c0,0.112-0.067,0.185-0.195,0.185c-0.121,0-0.189-0.072-0.189-0.185v-2.84c0-0.119,0.068-0.191,0.189-0.191   C44.023,1.961,44.091,2.033,44.091,2.152z M43.646,1.019c0-0.146,0.091-0.231,0.25-0.231c0.165,0,0.256,0.086,0.256,0.231   c0,0.138-0.091,0.217-0.256,0.217C43.736,1.235,43.646,1.156,43.646,1.019z M52.359,1.019c0-0.146,0.091-0.231,0.25-0.231   c0.165,0,0.256,0.086,0.256,0.231c0,0.138-0.091,0.217-0.256,0.217C52.45,1.235,52.359,1.156,52.359,1.019z M52.805,2.152v2.84   c0,0.112-0.067,0.185-0.195,0.185c-0.121,0-0.189-0.072-0.189-0.185v-2.84c0-0.119,0.068-0.191,0.189-0.191   C52.737,1.961,52.805,2.033,52.805,2.152z M46.299,5.217c0.61,0,1.084-0.251,1.339-0.686h0.014v0.461   c0,0.112,0.06,0.185,0.164,0.185c0.111,0,0.171-0.072,0.171-0.185v-2.84c0-0.119-0.06-0.191-0.171-0.191   c-0.104,0-0.164,0.072-0.164,0.191v0.454h-0.014c-0.255-0.435-0.729-0.686-1.339-0.686c-0.946,0-1.597,0.666-1.597,1.647   C44.702,4.551,45.353,5.217,46.299,5.217z M46.345,2.237c0.769,0,1.307,0.54,1.307,1.331c0,0.784-0.538,1.332-1.307,1.332   c-0.775,0-1.302-0.541-1.302-1.332S45.569,2.237,46.345,2.237z M48.735,3.569c0-0.976,0.677-1.648,1.648-1.648   c0.493,0,0.92,0.178,1.229,0.515c0.026,0.032,0.046,0.072,0.046,0.118c0,0.093-0.065,0.158-0.157,0.158   c-0.053,0-0.092-0.02-0.131-0.06c-0.237-0.263-0.579-0.415-0.986-0.415c-0.781,0-1.308,0.54-1.308,1.332   c0,0.79,0.526,1.33,1.308,1.33c0.434,0,0.788-0.164,1.038-0.487c0.02-0.026,0.065-0.059,0.132-0.059   c0.092,0,0.157,0.071,0.157,0.164c0,0.04-0.014,0.079-0.033,0.105c-0.282,0.383-0.742,0.594-1.294,0.594   C49.412,5.217,48.735,4.551,48.735,3.569z M54.831,1.381c0-0.046,0.014-0.079,0.053-0.119l0.774-0.777   c0.026-0.026,0.065-0.047,0.118-0.047c0.073,0,0.139,0.061,0.139,0.139c0,0.053-0.021,0.086-0.06,0.126l-0.801,0.771   c-0.033,0.033-0.066,0.04-0.099,0.04C54.877,1.513,54.831,1.453,54.831,1.381z M55.134,5.217c0.972,0,1.641-0.666,1.641-1.647   c0-0.976-0.669-1.648-1.641-1.648s-1.649,0.673-1.649,1.648C53.484,4.551,54.162,5.217,55.134,5.217z M55.134,2.237   c0.769,0,1.3,0.54,1.3,1.332c0,0.79-0.531,1.331-1.3,1.331c-0.782,0-1.308-0.541-1.308-1.331   C53.826,2.777,54.352,2.237,55.134,2.237z M57.525,4.992V2.146c0-0.112,0.058-0.185,0.163-0.185c0.112,0,0.171,0.072,0.171,0.185   v0.428h0.013c0.237-0.415,0.67-0.652,1.249-0.652c0.893,0,1.372,0.515,1.372,1.47v1.602c0,0.112-0.065,0.185-0.17,0.185   c-0.106,0-0.166-0.072-0.166-0.185V3.417c0-0.777-0.373-1.18-1.103-1.18c-0.729,0-1.195,0.514-1.195,1.318v1.437   c0,0.112-0.059,0.185-0.171,0.185C57.583,5.177,57.525,5.104,57.525,4.992z M28.625,5.947c0.137,0,0.218,0.089,0.218,0.243v5.051   c0,0.154-0.081,0.243-0.218,0.243c-0.146,0-0.227-0.089-0.227-0.243V6.19C28.399,6.036,28.479,5.947,28.625,5.947z M30.39,7.749   v0.527h0.016c0.292-0.511,0.826-0.804,1.538-0.804c1.101,0,1.691,0.634,1.691,1.812v1.973c0,0.139-0.082,0.228-0.21,0.228   c-0.13,0-0.203-0.089-0.203-0.228v-1.94c0-0.958-0.461-1.453-1.359-1.453c-0.898,0-1.472,0.633-1.472,1.624v1.77   c0,0.139-0.073,0.228-0.21,0.228c-0.13,0-0.203-0.089-0.203-0.228V7.749c0-0.138,0.073-0.228,0.203-0.228   C30.316,7.521,30.39,7.611,30.39,7.749z M34.945,6.507V7.57h1.821c0.13,0,0.211,0.073,0.211,0.195S36.896,7.96,36.766,7.96h-1.821   v2.087c0,0.69,0.38,1.097,1.003,1.097c0.43,0,0.721-0.203,0.874-0.512c0.041-0.081,0.105-0.122,0.187-0.122   c0.113,0,0.193,0.09,0.193,0.203c0,0.041-0.008,0.081-0.023,0.113c-0.21,0.447-0.664,0.707-1.255,0.707   c-0.866,0-1.392-0.561-1.392-1.494V6.507c0-0.146,0.074-0.235,0.21-0.235C34.872,6.271,34.945,6.36,34.945,6.507z M37.641,9.503   c0,1.21,0.833,2.03,2.071,2.03c0.696,0,1.262-0.276,1.618-0.715c0.032-0.04,0.057-0.089,0.057-0.138c0-0.122-0.073-0.22-0.211-0.22   c-0.056,0-0.113,0.033-0.153,0.082c-0.292,0.365-0.745,0.601-1.311,0.601c-0.955,0-1.587-0.601-1.643-1.494h3.333   c0.146,0,0.251-0.098,0.251-0.244c0-1.12-0.825-1.932-1.982-1.932C38.474,7.474,37.641,8.302,37.641,9.503z M39.671,7.863   c0.866,0,1.488,0.56,1.586,1.404h-3.18C38.175,8.423,38.789,7.863,39.671,7.863z M42.916,8.383   c0.259-0.577,0.768-0.885,1.489-0.885c0.129,0,0.209,0.072,0.209,0.202c0,0.139-0.08,0.203-0.209,0.203   c-0.964,0-1.505,0.634-1.505,1.835v1.519c0,0.139-0.073,0.228-0.211,0.228c-0.129,0-0.202-0.089-0.202-0.228v-3.5   c0-0.146,0.073-0.235,0.202-0.235c0.138,0,0.211,0.09,0.211,0.235v0.626H42.916z M47.245,7.473c1.101,0,1.69,0.634,1.69,1.812   v1.973c0,0.139-0.08,0.228-0.21,0.228s-0.202-0.089-0.202-0.228v-1.94c0-0.958-0.461-1.453-1.359-1.453s-1.473,0.633-1.473,1.624   v1.77c0,0.139-0.073,0.228-0.211,0.228c-0.129,0-0.202-0.089-0.202-0.228V7.749c0-0.138,0.073-0.228,0.202-0.228   c0.138,0,0.211,0.09,0.211,0.228v0.527h0.017C45.998,7.766,46.533,7.473,47.245,7.473z M49.745,9.503c0,1.21,0.834,2.03,2.072,2.03   c0.695,0,1.262-0.276,1.617-0.715c0.033-0.04,0.057-0.089,0.057-0.138c0-0.122-0.072-0.22-0.21-0.22   c-0.057,0-0.113,0.033-0.153,0.082c-0.292,0.365-0.745,0.601-1.311,0.601c-0.956,0-1.587-0.601-1.644-1.494h3.334   c0.146,0,0.251-0.098,0.251-0.244c0-1.12-0.825-1.932-1.982-1.932C50.579,7.474,49.745,8.302,49.745,9.503z M51.776,7.863   c0.865,0,1.489,0.56,1.586,1.404h-3.18C50.279,8.423,50.895,7.863,51.776,7.863z M56.721,7.57c0.129,0,0.21,0.073,0.21,0.195   S56.85,7.96,56.721,7.96H54.9v2.087c0,0.69,0.38,1.097,1.003,1.097c0.429,0,0.72-0.203,0.874-0.512   c0.04-0.081,0.105-0.122,0.186-0.122c0.113,0,0.194,0.09,0.194,0.203c0,0.041-0.008,0.081-0.024,0.113   c-0.21,0.447-0.663,0.707-1.254,0.707c-0.866,0-1.392-0.561-1.392-1.494V6.507c0-0.146,0.072-0.235,0.21-0.235   c0.13,0,0.203,0.089,0.203,0.235V7.57H56.721z M58.169,11.484c-0.178,0-0.3-0.122-0.3-0.301c0-0.17,0.122-0.292,0.3-0.292   s0.291,0.122,0.291,0.292C58.46,11.362,58.347,11.484,58.169,11.484z M61.316,7.474c0.647,0,1.092,0.3,1.302,0.836h0.017   c0.259-0.52,0.729-0.836,1.416-0.836c0.979,0,1.474,0.608,1.474,1.737v2.046c0,0.139-0.073,0.228-0.203,0.228   c-0.137,0-0.21-0.089-0.21-0.228V9.252c0-0.909-0.389-1.389-1.117-1.389c-0.744,0-1.221,0.593-1.221,1.542v1.852   c0,0.139-0.073,0.228-0.203,0.228c-0.137,0-0.21-0.089-0.21-0.228V9.252c0-0.909-0.389-1.389-1.116-1.389   c-0.753,0-1.223,0.593-1.223,1.542v1.852c0,0.139-0.072,0.228-0.211,0.228c-0.128,0-0.201-0.089-0.201-0.228v-3.5   c0-0.146,0.073-0.235,0.201-0.235c0.139,0,0.211,0.09,0.211,0.235V8.18h0.016C60.297,7.725,60.741,7.474,61.316,7.474z    M69.854,11.103c0.048,0.057,0.073,0.105,0.073,0.179c0,0.122-0.098,0.203-0.22,0.203c-0.072,0-0.113-0.032-0.169-0.089   l-1.465-1.641l-1.48,1.648c-0.049,0.057-0.097,0.081-0.162,0.081c-0.121,0-0.202-0.089-0.202-0.211   c0-0.057,0.017-0.098,0.057-0.146l1.505-1.64l-1.448-1.584c-0.049-0.057-0.072-0.105-0.072-0.179c0-0.121,0.097-0.203,0.219-0.203   c0.072,0,0.112,0.033,0.169,0.09l1.424,1.607l1.432-1.615c0.05-0.058,0.098-0.082,0.162-0.082c0.121,0,0.203,0.09,0.203,0.212   c0,0.057-0.016,0.098-0.057,0.146l-1.457,1.6L69.854,11.103z M29.543,28.939h-0.786c-0.138,0-0.245,0.107-0.245,0.246v2.283   c0,0.139,0.107,0.246,0.245,0.246h0.786c0.87,0,1.47-0.606,1.47-1.388v-0.008C31.013,29.539,30.413,28.939,29.543,28.939z    M30.503,30.335c0,0.543-0.379,0.936-0.96,0.936h-0.545v-1.887h0.545c0.581,0,0.96,0.4,0.96,0.943V30.335z M32.854,29.099   c-0.055-0.123-0.149-0.198-0.288-0.198h-0.024c-0.138,0-0.237,0.075-0.292,0.198l-1.027,2.299c-0.02,0.04-0.032,0.075-0.032,0.111   c0,0.127,0.099,0.226,0.226,0.226c0.103,0,0.186-0.055,0.225-0.154l0.233-0.535h1.343l0.225,0.519   c0.043,0.104,0.122,0.171,0.237,0.171c0.13,0,0.229-0.104,0.229-0.233c0-0.032-0.007-0.067-0.027-0.104L32.854,29.099z    M32.061,30.612l0.485-1.122l0.486,1.122H32.061z M36.103,29.166c0,0.122-0.098,0.226-0.221,0.226h-0.676v2.102   c0,0.134-0.11,0.241-0.245,0.241s-0.245-0.107-0.245-0.241v-2.102h-0.672c-0.126,0-0.225-0.104-0.225-0.226   c0-0.123,0.099-0.227,0.225-0.227h1.837C36.005,28.939,36.103,29.043,36.103,29.166z M37.692,28.893c-0.85,0-1.45,0.654-1.45,1.435   v0.008c0,0.781,0.593,1.428,1.442,1.428s1.449-0.654,1.449-1.436v-0.008C39.134,29.539,38.541,28.893,37.692,28.893z    M38.624,30.335c0,0.539-0.383,0.976-0.932,0.976s-0.94-0.444-0.94-0.983v-0.008c0-0.539,0.384-0.979,0.933-0.979   s0.939,0.447,0.939,0.986V30.335z M41.576,30.918v0.008c0,0.52-0.406,0.829-0.987,0.829c-0.375,0-0.731-0.119-1.038-0.35   c-0.056-0.039-0.095-0.106-0.095-0.186c0-0.128,0.102-0.227,0.229-0.227c0.067,0,0.11,0.021,0.142,0.044   c0.229,0.183,0.475,0.285,0.775,0.285c0.3,0,0.489-0.143,0.489-0.349v-0.008c0-0.198-0.11-0.306-0.624-0.425   c-0.589-0.143-0.921-0.317-0.921-0.828v-0.008c0-0.476,0.396-0.805,0.944-0.805c0.348,0,0.628,0.091,0.877,0.258   c0.056,0.031,0.107,0.099,0.107,0.194c0,0.126-0.104,0.226-0.229,0.226c-0.048,0-0.088-0.012-0.127-0.035   c-0.213-0.139-0.419-0.211-0.636-0.211c-0.284,0-0.45,0.146-0.45,0.329v0.008c0,0.214,0.126,0.31,0.66,0.437   C41.276,30.248,41.576,30.458,41.576,30.918z M44.26,28.939h-0.845c-0.139,0-0.245,0.107-0.245,0.246v2.308   c0,0.134,0.106,0.241,0.245,0.241c0.134,0,0.24-0.107,0.24-0.241v-0.67h0.55c0.608,0,1.105-0.325,1.105-0.948v-0.008   C45.311,29.309,44.908,28.939,44.26,28.939z M44.817,29.888c0,0.289-0.229,0.495-0.597,0.495h-0.565v-0.999h0.565   c0.363,0,0.597,0.171,0.597,0.496V29.888z M47.816,31.497c0,0.122-0.1,0.218-0.218,0.218h-1.627c-0.139,0-0.245-0.107-0.245-0.246   v-2.283c0-0.139,0.106-0.246,0.245-0.246h1.607c0.119,0,0.218,0.1,0.218,0.218c0,0.123-0.099,0.219-0.218,0.219h-1.366v0.722h1.188   c0.119,0,0.218,0.099,0.218,0.222c0,0.119-0.099,0.214-0.218,0.214h-1.188v0.745h1.386C47.717,31.278,47.816,31.378,47.816,31.497z    M49.523,28.94h-0.987c-0.139,0-0.244,0.106-0.244,0.245v2.308c0,0.134,0.105,0.241,0.244,0.241c0.134,0,0.241-0.107,0.241-0.241   v-0.745h0.612l0.671,0.859c0.056,0.076,0.127,0.127,0.237,0.127c0.119,0,0.233-0.091,0.233-0.226c0-0.075-0.032-0.127-0.079-0.187   l-0.529-0.67c0.371-0.115,0.628-0.385,0.628-0.828v-0.008c0-0.242-0.083-0.448-0.229-0.599   C50.145,29.043,49.872,28.94,49.523,28.94z M50.058,29.852c0,0.281-0.222,0.464-0.569,0.464h-0.711v-0.932h0.707   c0.359,0,0.573,0.163,0.573,0.46V29.852z M53.021,30.918v0.008c0,0.52-0.407,0.829-0.988,0.829c-0.375,0-0.73-0.119-1.039-0.35   c-0.055-0.039-0.095-0.106-0.095-0.186c0-0.128,0.103-0.227,0.229-0.227c0.066,0,0.11,0.021,0.142,0.044   c0.229,0.183,0.474,0.285,0.775,0.285c0.3,0,0.489-0.143,0.489-0.349v-0.008c0-0.198-0.111-0.306-0.624-0.425   c-0.588-0.143-0.921-0.317-0.921-0.828v-0.008c0-0.476,0.396-0.805,0.944-0.805c0.349,0,0.628,0.091,0.877,0.258   c0.055,0.031,0.106,0.099,0.106,0.194c0,0.126-0.103,0.226-0.229,0.226c-0.048,0-0.087-0.012-0.127-0.035   c-0.213-0.139-0.418-0.211-0.636-0.211c-0.284,0-0.45,0.146-0.45,0.329v0.008c0,0.214,0.126,0.31,0.659,0.437   C52.722,30.248,53.021,30.458,53.021,30.918z M54.839,28.893c-0.849,0-1.449,0.654-1.449,1.435v0.008   c0,0.781,0.593,1.428,1.441,1.428c0.85,0,1.45-0.654,1.45-1.436v-0.008C56.281,29.539,55.688,28.893,54.839,28.893z M55.771,30.335   c0,0.539-0.383,0.976-0.933,0.976c-0.549,0-0.939-0.444-0.939-0.983v-0.008c0-0.539,0.383-0.979,0.932-0.979   c0.55,0,0.94,0.447,0.94,0.986V30.335z M59.197,29.158v2.331c0,0.134-0.103,0.241-0.237,0.241h-0.02   c-0.114,0-0.186-0.06-0.252-0.146l-1.423-1.848v1.761c0,0.13-0.106,0.237-0.236,0.237c-0.135,0-0.241-0.107-0.241-0.237V29.17   c0-0.135,0.106-0.246,0.245-0.246h0.051c0.118,0,0.186,0.06,0.252,0.144l1.384,1.795v-1.704c0-0.131,0.106-0.238,0.237-0.238   C59.091,28.92,59.197,29.027,59.197,29.158z M61.3,29.099c-0.055-0.123-0.149-0.198-0.288-0.198h-0.023   c-0.139,0-0.237,0.075-0.293,0.198l-1.026,2.299c-0.021,0.04-0.031,0.075-0.031,0.111c0,0.127,0.098,0.226,0.225,0.226   c0.103,0,0.185-0.055,0.226-0.154l0.233-0.535h1.342l0.226,0.519c0.044,0.104,0.122,0.171,0.237,0.171   c0.13,0,0.229-0.104,0.229-0.233c0-0.032-0.008-0.067-0.027-0.104L61.3,29.099z M60.506,30.612l0.486-1.122l0.485,1.122H60.506z    M64.758,31.493c0,0.122-0.099,0.222-0.222,0.222h-1.493c-0.139,0-0.245-0.107-0.245-0.246v-2.307c0-0.135,0.106-0.242,0.245-0.242   c0.135,0,0.241,0.107,0.241,0.242v2.108h1.252C64.659,31.271,64.758,31.37,64.758,31.493z M67.251,31.497   c0,0.122-0.099,0.218-0.217,0.218h-1.628c-0.138,0-0.245-0.107-0.245-0.246v-2.283c0-0.139,0.107-0.246,0.245-0.246h1.608   c0.118,0,0.217,0.1,0.217,0.218c0,0.123-0.099,0.219-0.217,0.219h-1.367v0.722h1.188c0.119,0,0.218,0.099,0.218,0.222   c0,0.119-0.099,0.214-0.218,0.214h-1.188v0.745h1.387C67.152,31.278,67.251,31.378,67.251,31.497z M69.682,30.918v0.008   c0,0.52-0.407,0.829-0.988,0.829c-0.375,0-0.729-0.119-1.038-0.35c-0.056-0.039-0.095-0.106-0.095-0.186   c0-0.128,0.103-0.227,0.229-0.227c0.066,0,0.111,0.021,0.143,0.044c0.229,0.183,0.475,0.285,0.774,0.285s0.489-0.143,0.489-0.349   v-0.008c0-0.198-0.11-0.306-0.624-0.425c-0.588-0.143-0.92-0.317-0.92-0.828v-0.008c0-0.476,0.395-0.805,0.943-0.805   c0.349,0,0.629,0.091,0.877,0.258c0.056,0.031,0.107,0.099,0.107,0.194c0,0.126-0.103,0.226-0.229,0.226   c-0.048,0-0.088-0.012-0.127-0.035c-0.213-0.139-0.419-0.211-0.636-0.211c-0.285,0-0.451,0.146-0.451,0.329v0.008   c0,0.214,0.127,0.31,0.659,0.437C69.382,30.248,69.682,30.458,69.682,30.918z M69.146,26.778H28.44l0.182-0.366h40.707   L69.146,26.778z"></path>
</g>
</svg>